<svg width="23" height="29" viewBox="0 0 23 29" fill="none" xmlns="http://www.w3.org/2000/svg">
<path d="M21.2058 16.9915C21.2058 19.969 21.2058 22.9465 21.2058 25.9173C21.2058 27.3451 20.4485 28.4008 19.1728 28.7662C18.8863 28.8474 18.5998 28.8813 18.2996 28.8813C13.797 28.8813 9.3013 28.8813 4.79874 28.8813C3.03864 28.8813 1.81067 27.6564 1.81067 25.9037C1.81067 19.8404 1.80385 13.7771 1.81749 7.707C1.81749 7.40248 1.74245 7.31451 1.44228 7.34835C1.1694 7.37542 0.896516 7.36865 0.623634 7.34835C0.200666 7.32128 0.00964785 7.11827 0.0164699 6.69871C0.0369361 6.1032 -0.0653948 5.50093 0.0778685 4.91219C0.309819 3.95803 1.13529 3.30839 2.12449 3.30839C3.67992 3.30162 5.23535 3.30162 6.7976 3.31516C7.05684 3.31516 7.11142 3.25425 7.11142 3.00387C7.11142 2.47604 7.03637 1.94144 7.15235 1.42037C7.34337 0.588016 8.01875 0.0195799 8.87833 0.0128128C10.6316 -0.000721434 12.378 -0.00748853 14.1313 0.0128128C15.1273 0.026347 15.8846 0.831632 15.9051 1.8264C15.9119 2.21889 15.9255 2.61815 15.8982 3.01064C15.8778 3.28132 15.9801 3.31516 16.2189 3.31516C17.7334 3.30162 19.241 3.30839 20.7555 3.30839C22.0858 3.30839 22.9932 4.21518 23 5.528C23 5.90019 23 6.27238 23 6.64457C23 7.14533 22.809 7.33481 22.3041 7.34835C22.0449 7.35511 21.7788 7.36865 21.5196 7.34158C21.2331 7.31451 21.1922 7.42955 21.1922 7.67994C21.2058 10.7928 21.2058 13.8921 21.2058 16.9915ZM3.03182 16.8561C3.03182 19.8742 3.03182 22.8991 3.03182 25.9173C3.03182 27.0744 3.70038 27.7308 4.87378 27.7308C9.28083 27.7308 13.6947 27.7173 18.1018 27.7376C19.357 27.7444 20.0733 27.0541 20.0733 25.7819C20.0802 19.7524 20.0733 13.723 20.0802 7.6867C20.0802 7.43632 20.0392 7.34835 19.7595 7.34835C14.295 7.35511 8.82375 7.35511 3.35928 7.34835C3.0864 7.34835 3.025 7.41602 3.025 7.67994C3.03864 10.7454 3.03182 13.7974 3.03182 16.8561ZM11.4844 6.19794C14.7317 6.19794 17.9858 6.19794 21.2331 6.19794C21.7789 6.19794 21.7789 6.19794 21.7789 5.64981C21.7789 4.81745 21.4241 4.47233 20.5782 4.47233C14.9773 4.47233 9.37634 4.47233 3.7686 4.47233C3.22284 4.47233 2.67707 4.46556 2.13131 4.47233C1.59919 4.48587 1.19669 4.89189 1.17622 5.41972C1.1694 5.5686 1.18986 5.71748 1.1694 5.85959C1.12847 6.1438 1.23762 6.21148 1.51732 6.20471C4.84649 6.19117 8.16201 6.19794 11.4844 6.19794ZM11.5253 3.31516C12.4872 3.31516 13.4559 3.30162 14.4178 3.32192C14.6976 3.32869 14.7589 3.24072 14.7453 2.98357C14.7248 2.65875 14.7453 2.33393 14.7385 2.00234C14.7385 1.40007 14.4997 1.16999 13.8925 1.16999C12.6236 1.16999 11.3479 1.16999 10.079 1.16999C9.7038 1.16999 9.32859 1.16322 8.95337 1.16999C8.57816 1.18352 8.23023 1.47451 8.28481 1.75196C8.3735 2.19182 8.31892 2.62491 8.32574 3.05801C8.33256 3.26102 8.3735 3.32192 8.5918 3.32192C9.57418 3.30839 10.5497 3.31516 11.5253 3.31516Z" fill="#131313"/>
<path d="M12.112 17.5261C12.112 19.7592 12.112 21.9856 12.112 24.2187C12.112 24.4827 12.1052 24.7466 11.8323 24.8954C11.4707 25.0917 11.0477 24.8954 10.9659 24.4962C10.9454 24.4014 10.9454 24.2932 10.9454 24.1917C10.9454 19.7389 10.9454 15.2929 10.9454 10.8402C10.9454 10.2717 11.1432 10.0417 11.6003 10.0755C11.8868 10.0958 12.0642 10.2447 12.0983 10.5289C12.1188 10.671 12.112 10.8199 12.112 10.9688C12.112 13.1545 12.112 15.3403 12.112 17.5261Z" fill="#131313"/>
<path d="M6.36099 17.499C6.36099 15.2456 6.36099 12.9921 6.36099 10.7387C6.36099 10.3056 6.52472 10.1026 6.87265 10.0755C7.31608 10.0417 7.52757 10.265 7.52757 10.7657C7.52757 14.2102 7.52757 17.6614 7.52757 21.1059C7.52757 22.1751 7.52757 23.2443 7.52757 24.3202C7.52757 24.8345 7.08413 25.1188 6.65434 24.8887C6.40875 24.7601 6.36781 24.5435 6.36781 24.2864C6.36099 22.0262 6.36099 19.7592 6.36099 17.499Z" fill="#131313"/>
<path d="M15.4957 17.4922C15.4957 15.2388 15.4957 12.9853 15.4957 10.7251C15.4957 10.2717 15.6868 10.0619 16.0824 10.0687C16.4235 10.0687 16.6282 10.2649 16.6623 10.6033C16.6691 10.6845 16.6623 10.7589 16.6623 10.8401C16.6623 15.2726 16.6623 19.6983 16.6623 24.1307C16.6623 24.2187 16.6691 24.3134 16.6623 24.4014C16.635 24.733 16.4099 24.9563 16.0961 24.9631C15.7823 24.9699 15.5094 24.7195 15.5026 24.3946C15.4957 23.7721 15.4957 23.1563 15.4957 22.5337C15.4957 20.8487 15.4957 19.1704 15.4957 17.4922Z" fill="#131313"/>
</svg>
